<svg width="42" height="18" viewBox="0 0 42 18" fill="none" xmlns="http://www.w3.org/2000/svg">
<rect width="42" height="18" rx="9" fill="#E77811"/>
<path d="M14.342 9.89803H10.758V14H8.84003V4.20003H10.758V8.19003H14.342V4.20003H16.26V14H14.342V9.89803Z" fill="white"/>
<path d="M17.6512 9.10003C17.6512 7.4667 18.0105 6.21136 18.7292 5.33403C19.4478 4.44736 20.4745 4.00403 21.8092 4.00403C22.5092 4.00403 23.1205 4.12536 23.6432 4.36803C24.1658 4.61069 24.5998 4.95603 24.9452 5.40403C25.2905 5.85203 25.5472 6.3887 25.7152 7.01403C25.8832 7.63936 25.9672 8.3347 25.9672 9.10003C25.9672 10.7334 25.6032 11.9934 24.8752 12.88C24.1565 13.7574 23.1345 14.196 21.8092 14.196C21.0998 14.196 20.4838 14.0747 19.9612 13.832C19.4385 13.5894 19.0045 13.244 18.6592 12.796C18.3232 12.348 18.0712 11.8114 17.9032 11.186C17.7352 10.5607 17.6512 9.86536 17.6512 9.10003ZM19.6672 9.10003C19.6672 9.5947 19.7092 10.052 19.7932 10.472C19.8772 10.8827 20.0032 11.2374 20.1712 11.536C20.3485 11.8347 20.5725 12.068 20.8432 12.236C21.1138 12.404 21.4358 12.488 21.8092 12.488C22.4905 12.488 23.0178 12.222 23.3912 11.69C23.7645 11.158 23.9512 10.2947 23.9512 9.10003C23.9512 8.62403 23.9092 8.1807 23.8252 7.77003C23.7505 7.35936 23.6292 7.00003 23.4612 6.69203C23.2932 6.38403 23.0738 6.14603 22.8032 5.97803C22.5325 5.8007 22.2012 5.71203 21.8092 5.71203C21.1278 5.71203 20.6005 5.98736 20.2272 6.53803C19.8538 7.07936 19.6672 7.93336 19.6672 9.10003Z" fill="white"/>
<path d="M33.7492 5.90803H30.8932V14H28.9752V5.90803H26.1052V4.20003H33.7492V5.90803Z" fill="white"/>
</svg>
