<svg width="42" height="18" viewBox="0 0 42 18" fill="none" xmlns="http://www.w3.org/2000/svg">
<rect width="42" height="18" rx="9" fill="#DBA760"/>
<path d="M10.276 8.89001L9.50603 7.35001H9.43603L9.66003 8.89001V14H7.84003V4.13H9.24003L12.95 9.35201L13.692 10.85H13.762L13.538 9.35201V4.2H15.358V14.07H13.958L10.276 8.89001Z" fill="white"/>
<path d="M17.0412 4.2H22.8512V5.90801H18.9592V8.19001H22.5012V9.89801H18.9592V12.292H22.9212V14H17.0412V4.2Z" fill="white"/>
<path d="M26.9037 9.67401L27.0857 11.41H27.1417L27.3377 9.64601L29.0457 4.2H30.3057L31.9857 9.67401L32.1817 11.41H32.2377L32.4477 9.64601L33.6377 4.2H35.5837L32.8817 14.07H31.5937L29.8437 8.62401L29.6057 7.12601H29.5357L29.2977 8.63801L27.5617 14.07H26.2037L23.5157 4.2H25.6017L26.9037 9.67401Z" fill="white"/>
</svg>
