<svg width="62" height="18" viewBox="0 0 62 18" fill="none" xmlns="http://www.w3.org/2000/svg">
<rect width="62" height="18" rx="9" fill="#1E7873"/>
<path d="M13.7013 5.90803H10.8453V14H8.92725V5.90803H6.05725V4.20003H13.7013V5.90803Z" fill="white"/>
<path d="M13.8454 9.10003C13.8454 7.4667 14.2047 6.21136 14.9234 5.33403C15.6421 4.44736 16.6687 4.00403 18.0034 4.00403C18.7034 4.00403 19.3147 4.12536 19.8374 4.36803C20.3601 4.61069 20.7941 4.95603 21.1394 5.40403C21.4847 5.85203 21.7414 6.3887 21.9094 7.01403C22.0774 7.63936 22.1614 8.3347 22.1614 9.10003C22.1614 10.7334 21.7974 11.9934 21.0694 12.88C20.3507 13.7574 19.3287 14.196 18.0034 14.196C17.2941 14.196 16.6781 14.0747 16.1554 13.832C15.6327 13.5894 15.1987 13.244 14.8534 12.796C14.5174 12.348 14.2654 11.8114 14.0974 11.186C13.9294 10.5607 13.8454 9.86536 13.8454 9.10003ZM15.8614 9.10003C15.8614 9.5947 15.9034 10.052 15.9874 10.472C16.0714 10.8827 16.1974 11.2374 16.3654 11.536C16.5427 11.8347 16.7667 12.068 17.0374 12.236C17.3081 12.404 17.6301 12.488 18.0034 12.488C18.6847 12.488 19.2121 12.222 19.5854 11.69C19.9587 11.158 20.1454 10.2947 20.1454 9.10003C20.1454 8.62403 20.1034 8.1807 20.0194 7.77003C19.9447 7.35936 19.8234 7.00003 19.6554 6.69203C19.4874 6.38403 19.2681 6.14603 18.9974 5.97803C18.7267 5.8007 18.3954 5.71203 18.0034 5.71203C17.3221 5.71203 16.7947 5.98736 16.4214 6.53803C16.0481 7.07936 15.8614 7.93336 15.8614 9.10003Z" fill="white"/>
<path d="M29.0343 9.89803H25.4503V14H23.5323V4.20003H25.4503V8.19003H29.0343V4.20003H30.9523V14H29.0343V9.89803Z" fill="white"/>
<path d="M35.0735 9.81403H34.5695V14H32.6515V4.20003H34.5695V8.54003L35.0175 8.34403L37.7195 4.20003H39.9035L37.0475 8.31603L36.2915 8.84803L37.0755 9.39403L40.3375 14H37.9715L35.0735 9.81403Z" fill="white"/>
<path d="M40.656 9.10003C40.656 7.4667 41.0153 6.21136 41.734 5.33403C42.4526 4.44736 43.4793 4.00403 44.814 4.00403C45.514 4.00403 46.1253 4.12536 46.648 4.36803C47.1706 4.61069 47.6046 4.95603 47.95 5.40403C48.2953 5.85203 48.552 6.3887 48.72 7.01403C48.888 7.63936 48.972 8.3347 48.972 9.10003C48.972 10.7334 48.608 11.9934 47.88 12.88C47.1613 13.7574 46.1393 14.196 44.814 14.196C44.1046 14.196 43.4886 14.0747 42.966 13.832C42.4433 13.5894 42.0093 13.244 41.664 12.796C41.328 12.348 41.076 11.8114 40.908 11.186C40.74 10.5607 40.656 9.86536 40.656 9.10003ZM42.672 9.10003C42.672 9.5947 42.714 10.052 42.798 10.472C42.882 10.8827 43.008 11.2374 43.176 11.536C43.3533 11.8347 43.5773 12.068 43.848 12.236C44.1186 12.404 44.4406 12.488 44.814 12.488C45.4953 12.488 46.0226 12.222 46.396 11.69C46.7693 11.158 46.956 10.2947 46.956 9.10003C46.956 8.62403 46.914 8.1807 46.83 7.77003C46.7553 7.35936 46.634 7.00003 46.466 6.69203C46.298 6.38403 46.0786 6.14603 45.808 5.97803C45.5373 5.8007 45.206 5.71203 44.814 5.71203C44.1326 5.71203 43.6053 5.98736 43.232 6.53803C42.8586 7.07936 42.672 7.93336 42.672 9.10003Z" fill="white"/>
<path d="M50.3429 4.20003H56.1529V5.90803H52.2609V8.19003H55.8029V9.89803H52.2609V12.292H56.2229V14H50.3429V4.20003Z" fill="white"/>
</svg>
