<svg width="58" height="18" viewBox="0 0 58 18" fill="none" xmlns="http://www.w3.org/2000/svg">
<rect width="58" height="18" rx="9" fill="#5E781E"/>
<path d="M12.06 9.954L12.312 11.62H12.382L12.662 9.94L14.538 4.2H16.554L12.914 14.07H11.542L7.87402 4.2H10.1L12.06 9.954Z" fill="white"/>
<path d="M17.2619 4.2H23.0719V5.908H19.1799V8.19H22.7219V9.898H19.1799V12.292H23.1419V14H17.2619V4.2Z" fill="white"/>
<path d="M28.0344 8.89H31.6884V13.258C31.2964 13.5847 30.825 13.8227 30.2744 13.972C29.733 14.1213 29.1964 14.196 28.6644 14.196C28.039 14.196 27.4557 14.098 26.9144 13.902C26.3824 13.706 25.9204 13.4027 25.5284 12.992C25.1364 12.572 24.8284 12.04 24.6044 11.396C24.3804 10.752 24.2684 9.98666 24.2684 9.1C24.2684 8.176 24.399 7.392 24.6604 6.748C24.931 6.09467 25.281 5.56733 25.7104 5.166C26.149 4.75533 26.639 4.46133 27.1804 4.284C27.7217 4.09733 28.2724 4.004 28.8324 4.004C29.3924 4.004 29.8824 4.046 30.3024 4.13C30.7317 4.214 31.0724 4.30266 31.3244 4.396L30.9324 6.006C30.699 5.91266 30.4377 5.84266 30.1484 5.796C29.859 5.74 29.4904 5.712 29.0424 5.712C28.641 5.712 28.2724 5.77266 27.9364 5.894C27.6004 6.01533 27.3064 6.216 27.0544 6.496C26.8117 6.76666 26.6204 7.11666 26.4804 7.546C26.3497 7.97533 26.2844 8.498 26.2844 9.114C26.2844 9.702 26.3497 10.2107 26.4804 10.64C26.611 11.06 26.793 11.41 27.0264 11.69C27.2597 11.9607 27.5304 12.1613 27.8384 12.292C28.1557 12.4227 28.4917 12.488 28.8464 12.488C29.089 12.488 29.327 12.46 29.5604 12.404C29.7937 12.3387 29.9897 12.2453 30.1484 12.124V10.276L28.0344 10.052V8.89Z" fill="white"/>
<path d="M37.9376 11.83H34.9276L34.1856 14H32.2676L35.7956 4.13H37.2096L40.7376 14H38.7216L37.9376 11.83ZM35.4176 10.29H37.5176L36.7896 8.106L36.4956 6.566H36.4256L36.1316 8.12L35.4176 10.29Z" fill="white"/>
<path d="M44.0202 8.89L43.2502 7.35H43.1802L43.4042 8.89V14H41.5842V4.13H42.9842L46.6942 9.352L47.4362 10.85H47.5062L47.2822 9.352V4.2H49.1022V14.07H47.7022L44.0202 8.89Z" fill="white"/>
</svg>
